# xmcd CD database file
#
# Track frame offsets:
#	150
#	20103
#	47190
#	73608
#	93898
#	117615
#	135940
#	155140
#	177870
#	204690
#	239633
#	270900
#	296295
#	317648
#	336098
#	354953
#
# Disc length: 4739 seconds
#
# Revision: 1
# Processed by: cddbd v1.5.2PL0 Copyright (c) Steve Scherf et al.
# Submitted via: Feurio! 1.68 - http://www.feurio.com
#
DISCID=ed128110
DTITLE=Various Artist - Ferry Maat's SoulShow 'SoulShow 4 Ever' [CD1/3)
DYEAR=1900
DGENRE=Blues
TTITLE0=Earth, Wind and Fire - In The Stone
TTITLE1=Norma Jean Wright - Saturday Night
TTITLE2=The Whispers - In The Raw
TTITLE3=Greg Phillinganes - Girl Talk
TTITLE4=The Ritchie Family - I'll Do My Best
TTITLE5=Midnight Starr - Make Time (To Fall In Love)
TTITLE6=Patti Austin - It's Gonna Be Special
TTITLE7=Sun - Sun Is Here
TTITLE8=The Spinners - Magic In The Moonlight
TTITLE9=Alton Edwards - I Just Wanna Spend Some Time With You
TTITLE10=The Trammps - Love Insurance Policy
TTITLE11=Melba Moore - Love's Comin' at ya
TTITLE12=Brick - Sweat ('Till You Get Wet)
TTITLE13=A Taste Of Honey - Sayonara
TTITLE14=Dynasty - Adventures In The Land Of Music
TTITLE15=Jingle - SoulShow Classic (fast)
EXTD=(c) By BoB TB :-)
EXTT0=
EXTT1=
EXTT2=
EXTT3=
EXTT4=
EXTT5=
EXTT6=
EXTT7=
EXTT8=
EXTT9=
EXTT10=
EXTT11=
EXTT12=
EXTT13=
EXTT14=
EXTT15=
PLAYORDER=
